<!-- Generated by IcoMoon.io -->
<svg version="1.1" xmlns="http://www.w3.org/2000/svg" width="32" height="32" viewBox="0 0 32 32">
<title>Arrow-Right</title>
<path fill="#ffb20e" d="M16 4.114c4.797 0 8.686 3.889 8.686 8.686s-3.889 8.686-8.686 8.686c-4.797 0-8.686-3.889-8.686-8.686s3.889-8.686 8.686-8.686z"></path>
<path fill="#fff" d="M18.070 12.965c0.133-0.133 0.133-0.354 0-0.486l-2.858-2.873c-0.147-0.133-0.368-0.133-0.501 0l-0.339 0.339c-0.133 0.133-0.133 0.354 0 0.501l2.269 2.269-2.269 2.283c-0.133 0.147-0.133 0.368 0 0.501l0.339 0.339c0.133 0.133 0.354 0.133 0.501 0l2.858-2.873z"></path>
</svg>
