<svg xmlns="http://www.w3.org/2000/svg" aria-hidden="true" style="position:absolute;width:0;height:0;overflow:hidden">
  <defs>

    <symbol id="icon-location" viewBox="0 0 22 32">
    <path fill="#ff7474" style="fill: var(--color1, #ff7474)" d="M9.923 30.12c0.519 0.808 1.731 0.808 2.25 0 8.423-12.115 9.981-13.385 9.981-17.885 0-6.115-4.961-11.077-11.077-11.077-6.173 0-11.077 4.962-11.077 11.077 0 4.5 1.5 5.769 9.923 17.885zM11.077 16.851c-2.596 0-4.615-2.019-4.615-4.615 0-2.538 2.019-4.615 4.615-4.615 2.538 0 4.615 2.077 4.615 4.615 0 2.596-2.077 4.615-4.615 4.615z"></path>
    </symbol>

    <symbol id="icon-shop" viewBox="0 0 27 32">
      <path fill="#757575" d="M20.842 9.895V8c0-4.145-3.434-7.579-7.579-7.579C9.059.421 5.684 3.855 5.684 8v1.895H0V26c0 2.664 2.072 4.737 4.737 4.737H21.79A4.713 4.713 0 0 0 26.527 26V9.895h-5.684zM9.474 8a3.778 3.778 0 0 1 3.789-3.789c2.072 0 3.789 1.717 3.789 3.789v1.895H9.473V8zm9.473 7.105c-.829 0-1.421-.592-1.421-1.421 0-.77.592-1.421 1.421-1.421.77 0 1.421.651 1.421 1.421 0 .829-.651 1.421-1.421 1.421zm-11.368 0c-.829 0-1.421-.592-1.421-1.421 0-.77.592-1.421 1.421-1.421.77 0 1.421.651 1.421 1.421 0 .829-.651 1.421-1.421 1.421z" style="fill:var(--color3, #757575)"/>
    </symbol>
    <symbol id="icon-delivery" viewBox="0 0 51 32">
      <path fill="#f17228" d="M40.533 10.667c-1.05 0-2.175.225-3.15.525l-2.475-4.125h6.225c.975 0 1.8-.75 1.8-1.8v-2.4c0-.975-.825-1.8-1.8-1.8h-3.45c-.525 0-.975.225-1.35.6l-2.775 3.15-1.725-2.85c-.3-.525-.9-.9-1.5-.9h-6c-.675 0-1.2.6-1.2 1.2v1.2c0 .675.525 1.2 1.2 1.2h4.95l1.425 2.4h-11.55c-1.275-1.725-3.3-3-7.425-3h-4.2c-.975 0-1.875.825-1.8 1.875 0 .975.75 1.725 1.8 1.725h4.2c1.8 0 2.85.825 3.525 1.875l-.825 1.575a8.46 8.46 0 0 0-3.075-.375c-5.1.15-9.15 4.275-9.225 9.3-.15 5.475 4.2 9.825 9.6 9.825 4.425 0 8.175-3 9.3-7.2h6.3c.975 0 1.8-.825 1.8-1.875-.15-3.525 1.275-6.975 4.2-9.375l.9 1.575c-2.025 1.8-3.375 4.425-3.3 7.35 0 5.25 4.275 9.525 9.45 9.525 5.4.075 9.75-4.275 9.75-9.675-.075-5.175-4.35-9.45-9.6-9.525zm-28.8 15.6c-3.375 0-6-2.625-6-6 0-3.3 2.625-6 6-6 .3 0 .6.075.9.075l-3.075 5.7c-.675 1.2.15 2.625 1.575 2.625h6.075c-.975 2.175-3.075 3.6-5.475 3.6zm34.725-5.625c-.15 3-2.625 5.475-5.625 5.625-3.45.225-6.3-2.55-6.3-6 0-1.575.6-3 1.65-4.125l3.675 6.225c.375.525 1.05.75 1.65.375l1.05-.6c.525-.3.75-1.05.375-1.65l-3.6-6.075c.375-.075.75-.075 1.2-.075 3.375-.075 6.15 2.85 5.925 6.3z" style="fill:var(--color4, #f17228)"/>
    </symbol>
    <symbol id="icon-user" viewBox="0 0 27 32">
      <path d="M13.474 15.579c4.145 0 7.579-3.375 7.579-7.579 0-4.145-3.434-7.579-7.579-7.579C9.27.421 5.895 3.855 5.895 8a7.556 7.556 0 0 0 7.579 7.579zm5.269 1.895h-1.007c-1.303.651-2.724.947-4.263.947s-3.02-.296-4.322-.947H8.144c-4.382 0-7.934 3.612-7.934 7.993v2.428a2.805 2.805 0 0 0 2.842 2.842h20.842a2.842 2.842 0 0 0 2.842-2.842v-2.428c0-4.382-3.612-7.993-7.993-7.993z"/>
    </symbol>
    <symbol id="icon-Search" viewBox="0 0 32 32">
      <path fill="#ffb30e" d="M29.901 26.651 23.98 20.73c-.296-.237-.651-.414-1.007-.414h-.947c1.599-2.072 2.605-4.678 2.605-7.579 0-6.75-5.566-12.316-12.316-12.316C5.506.421-.001 5.987-.001 12.737a12.307 12.307 0 0 0 12.316 12.316c2.842 0 5.447-.947 7.579-2.605v1.007c0 .355.118.711.414 1.006l5.862 5.862c.592.592 1.48.592 2.013 0l1.658-1.658c.592-.533.592-1.421.059-2.013zm-17.585-6.335a7.556 7.556 0 0 1-7.579-7.579c0-4.145 3.375-7.579 7.579-7.579 4.145 0 7.579 3.434 7.579 7.579 0 4.204-3.434 7.579-7.579 7.579z" style="fill:var(--color5, #ffb30e)"/>
    </symbol>
    <symbol id="icon-find" viewBox="0 0 32 32">
      <path fill="#fff" d="m29.458 26.25-5.833-5.833c-.292-.233-.642-.408-.992-.408H21.7c1.575-2.042 2.567-4.608 2.567-7.467 0-6.65-5.483-12.133-12.133-12.133C5.426.409.001 5.892.001 12.542a12.124 12.124 0 0 0 12.133 12.133c2.8 0 5.367-.933 7.467-2.567v.992c0 .35.117.7.408.992l5.775 5.775c.583.583 1.458.583 1.983 0l1.633-1.633c.583-.525.583-1.4.058-1.983zm-17.325-6.241a7.444 7.444 0 0 1-7.467-7.467c0-4.083 3.325-7.467 7.467-7.467 4.083 0 7.467 3.383 7.467 7.467 0 4.142-3.383 7.467-7.467 7.467z" style="fill:var(--color1, #fff)"/>
    </symbol>
    
  </defs>
</svg>